<?xml version="1.0" encoding="UTF-8"?>
<svg version="1.1" xmlns="http://www.w3.org/2000/svg" width="512" height="512">
<path d="M0 0 C2.15884238 1.82462829 4.06437537 3.75891699 5.9921875 5.828125 C6.43288574 6.29863281 6.87358398 6.76914063 7.32763672 7.25390625 C9.8753971 9.98026007 12.39912098 12.72775624 14.9140625 15.484375 C21.89865273 23.10870813 29.17446011 30.23022384 37.28125 36.66796875 C39.00988809 38.04539939 40.71608977 39.45181278 42.390625 40.89453125 C95.36379202 86.26429417 165.65345353 102.51572654 233.95361328 98.60107422 C290.06641089 94.25403825 345.29375474 71.08819926 386.7421875 32.89453125 C388.7266557 31.07199014 390.75004642 29.32028942 392.8046875 27.578125 C400.32655144 21.01942656 407.50362045 13.8474517 413.9921875 6.265625 C417.9443801 1.70762185 420.6996102 -1.21633213 426.8671875 -2.109375 C431.64135887 -2.39312961 434.83448176 -1.6991079 438.9921875 0.828125 C442.9856836 4.72826664 445.14367793 7.98516112 445.3046875 13.578125 C445.16269241 21.86117184 439.73235863 26.38990061 434.390625 32.20703125 C432.89519617 33.84128653 431.41773889 35.49240052 429.96875 37.16796875 C421.23020257 47.22901666 411.3111765 56.40282294 400.9921875 64.828125 C401.43046875 65.7046875 401.86875 66.58125 402.3203125 67.484375 C402.61921387 68.0822583 402.91811523 68.6801416 403.22607422 69.29614258 C403.92015136 70.68413009 404.61449946 72.07198214 405.30908203 73.4597168 C407.49360676 77.82550298 409.67189914 82.19430004 411.84375 86.56640625 C416.42933172 95.78550782 421.03464995 104.98563965 425.8671875 114.078125 C427.0946704 116.40507895 428.31892255 118.73368725 429.54101562 121.06347656 C430.62002055 123.11910439 431.70262068 125.1728459 432.78710938 127.22558594 C434.4264112 130.3346264 436.04340387 133.45460845 437.6494751 136.58093262 C438.28694965 137.81422776 438.93081195 139.04424525 439.58148193 140.27062988 C443.34682825 147.37852967 445.98224728 152.71945357 444.9921875 160.828125 C443.30726202 165.52818028 441.26214566 168.22902003 436.9921875 170.828125 C431.30637027 173.07369095 426.89981785 173.02024156 421.1328125 171.140625 C414.73249946 167.21634547 411.92797917 160.15003157 408.8046875 153.640625 C407.83114112 151.65150393 406.85585075 149.66323557 405.87890625 147.67578125 C405.39341309 146.68594238 404.90791992 145.69610352 404.40771484 144.67626953 C402.38381652 140.60403809 400.25846878 136.58952857 398.1171875 132.578125 C393.47457026 123.86007111 389.06949966 115.02937542 384.72119141 106.16113281 C381.11154386 98.86013555 377.18074837 91.81270451 372.9921875 84.828125 C372.23107666 85.31885498 371.46996582 85.80958496 370.68579102 86.31518555 C344.14300043 103.29326074 314.72313333 116.38234834 283.94140625 123.3203125 C282.00148379 123.65016171 282.00148379 123.65016171 280.9921875 124.828125 C281.44064348 127.53097669 281.9582166 130.18367171 282.53100586 132.86108398 C282.7064241 133.70348129 282.88184235 134.5458786 283.06257629 135.4138031 C283.44589968 137.25153549 283.83182313 139.08872695 284.21998405 140.92544365 C284.83495923 143.83808625 285.44211157 146.75225707 286.04701233 149.66700745 C287.768937 157.95738847 289.50446917 166.24489653 291.24682617 174.53100586 C292.31095087 179.59436838 293.36531699 184.65968695 294.41397285 189.72627449 C294.81486135 191.65303105 295.21951652 193.57900808 295.62809563 195.50414848 C296.20249179 198.21115986 296.76446452 200.92049369 297.32397461 203.63061523 C297.57880112 204.80862701 297.57880112 204.80862701 297.83877563 206.01043701 C299.20990028 212.760669 300.46139272 219.88971457 297.3046875 226.203125 C293.2383664 230.81894895 290.01012784 233.59597574 283.7421875 234.078125 C278.09464457 233.70162214 274.47660607 232.14385964 270.2421875 228.390625 C263.88988853 219.90504763 263.31336481 205.06873009 261.19921875 194.76953125 C260.84486304 193.04986439 260.49042531 191.33021442 260.13591003 189.61058044 C259.39877365 186.0315279 258.66370628 182.45205765 257.92993164 178.87231445 C256.99019293 174.28941325 256.04354395 169.70796897 255.09517384 165.12684727 C254.36346828 161.58707733 253.63624252 158.04639809 252.91028404 154.50544548 C252.56299836 152.81505882 252.21412846 151.12499681 251.86362648 149.43527412 C251.37550842 147.07960859 250.89364929 144.72274478 250.41333008 142.36547852 C250.2684314 141.67294983 250.12353271 140.98042114 249.97424316 140.26690674 C249.26143035 136.73358659 248.83434465 133.43367215 248.9921875 129.828125 C248.34072754 129.88871094 247.68926758 129.94929687 247.01806641 130.01171875 C221.43017293 132.33261612 196.57095527 132.18282595 170.9921875 129.828125 C170.90300049 131.08786133 170.81381348 132.34759766 170.72192383 133.64550781 C169.86845835 142.11252279 168.00935748 150.4196991 166.31640625 158.75 C165.94622514 160.58220452 165.57609354 162.41441905 165.20600891 164.24664307 C164.43219352 168.06998769 163.65395972 171.89240471 162.87329102 175.71435547 C161.87567144 180.60303809 160.89508414 185.49497316 159.91847515 190.38788986 C159.16134313 194.16617372 158.39224798 197.94195013 157.61985207 201.7171402 C157.25308652 203.5199079 156.89070447 205.32357338 156.53287315 207.12813568 C156.03148709 209.6503548 155.51331115 212.16857339 154.9909668 214.68652344 C154.77645119 215.79476723 154.77645119 215.79476723 154.55760193 216.92539978 C153.06391117 223.9541628 149.94943032 228.80698609 143.9921875 232.828125 C139.40164188 234.66434325 134.45004256 234.35295282 129.8671875 232.703125 C125.92926432 230.13491423 123.12106167 227.08587335 120.9921875 222.828125 C120.49406659 216.24316987 121.2707432 210.03759363 122.64453125 203.61474609 C122.82009552 202.75497162 122.99565979 201.89519714 123.17654419 201.0093689 C123.75162509 198.20475662 124.34050629 195.40324328 124.9296875 192.6015625 C125.33411237 190.6430506 125.73766322 188.68435804 126.14038086 186.72549438 C127.19698842 181.59783716 128.26537026 176.47270402 129.33630371 171.34802246 C130.42930329 166.10719829 131.5110378 160.86405101 132.59375 155.62109375 C134.71560388 145.35447877 136.84991592 135.09049751 138.9921875 124.828125 C137.55577906 124.34665788 136.11913971 123.8658796 134.68240356 123.38539124 C133.88239992 123.11758378 133.08239628 122.84977633 132.2581501 122.57385349 C129.60001976 121.69906256 126.92508783 120.90511354 124.234375 120.13671875 C104.42186296 114.3524298 85.84093458 106.92690982 67.84008789 96.78759766 C67.11168701 96.38460449 66.38328613 95.98161133 65.6328125 95.56640625 C64.99891602 95.20587158 64.36501953 94.84533691 63.71191406 94.47387695 C61.78922964 93.54603501 61.78922964 93.54603501 58.9921875 94.828125 C57.13000079 97.10413097 55.39477542 99.38254661 53.6796875 101.765625 C52.60049262 103.23550272 51.51970174 104.70420968 50.4375 106.171875 C49.87321289 106.93886719 49.30892578 107.70585937 48.72753906 108.49609375 C45.8970508 112.29981124 42.97674145 116.03207027 40.0546875 119.765625 C35.48413702 125.61889456 30.93696339 131.48846727 26.4296875 137.390625 C25.90246094 138.08067627 25.37523437 138.77072754 24.83203125 139.48168945 C22.04965176 143.1259093 19.27298185 146.7744062 16.5 150.42578125 C15.9232251 151.18366943 15.3464502 151.94155762 14.75219727 152.72241211 C13.65972262 154.15804289 12.56892788 155.59495439 11.48022461 157.03344727 C1.07330253 170.69976301 1.07330253 170.69976301 -5.640625 172.51953125 C-11.1810417 173.24179679 -16.01680171 171.90150097 -20.4453125 168.515625 C-24.042873 164.74257375 -25.08919623 161.80477294 -25.5703125 156.703125 C-25.24497372 146.29228415 -15.27390939 137.24483183 -8.9921875 129.52734375 C-5.61011427 125.36206487 -2.40281608 121.07592552 0.796875 116.76953125 C3.08441181 113.70455755 5.40744894 110.66977937 7.7421875 107.640625 C8.14808105 107.11355957 8.55397461 106.58649414 8.97216797 106.04345703 C10.84797069 103.60801459 12.72506385 101.1735909 14.60546875 98.74169922 C23.67355121 87.05332365 23.67355121 87.05332365 31.9921875 74.828125 C30.97640625 74.01730469 29.960625 73.20648438 28.9140625 72.37109375 C21.25179401 66.22072165 13.7872679 59.96341658 6.60546875 53.2578125 C4.33493144 51.14678977 2.02939314 49.09986026 -0.3203125 47.078125 C-24.18597844 26.31894037 -24.18597844 26.31894037 -25.24609375 16.65625 C-25.41440468 10.80965963 -25.03206585 7.39619637 -21.0078125 2.828125 C-15.13861218 -2.6008853 -7.2520807 -4.23273193 0 0 Z " fill="#000000" transform="translate(46.0078125,140.171875)"/>
</svg>
